<svg width="155" height="32" viewBox="0 0 155 32" fill="none" xmlns="http://www.w3.org/2000/svg">
<g id="Vector">
<path d="M39.6617 7.22365C40.3166 7.22365 41.0416 7.3172 41.8367 7.50429C42.6319 7.69139 43.3803 8.04221 44.0819 8.55673C44.7835 9.07125 45.3682 9.78457 45.8359 10.6967C46.327 11.6088 46.5726 12.7899 46.5726 14.2399V24.6239H41.6964V14.4153C41.6964 13.8774 41.6029 13.4213 41.4158 13.0471C41.252 12.6729 41.0182 12.3806 40.7141 12.1701C40.4335 11.9362 40.1061 11.7725 39.7319 11.679C39.3577 11.562 38.9835 11.5036 38.6093 11.5036C38.3053 11.5036 37.9662 11.562 37.592 11.679C37.2412 11.7725 36.902 11.9362 36.5746 12.1701C36.2706 12.404 36.0133 12.708 35.8028 13.0822C35.5924 13.4564 35.4871 13.9008 35.4871 14.4153V24.6239H30.646V7.22365H34.7855L35.4871 8.55673C36.0484 8.15914 36.6799 7.84341 37.3815 7.60954C38.0831 7.35228 38.8432 7.22365 39.6617 7.22365Z" fill="#150A22"/>
<path d="M67.797 7.22365V24.6239H63.6224L63.1312 22.7646C62.453 23.6767 61.6345 24.2848 60.6756 24.5888C59.7401 24.8929 58.7578 25.0449 57.7288 25.0449C56.4893 25.0449 55.3433 24.811 54.2909 24.3433C53.2619 23.8521 52.3615 23.1973 51.5897 22.3787C50.8179 21.5368 50.2099 20.5662 49.7655 19.467C49.3445 18.3444 49.1341 17.1516 49.1341 15.8887C49.1341 14.6258 49.3445 13.4447 49.7655 12.3455C50.2099 11.2229 50.8179 10.2523 51.5897 9.43376C52.3615 8.59181 53.2619 7.93696 54.2909 7.46921C55.3433 6.97808 56.4893 6.73251 57.7288 6.73251C58.8514 6.73251 59.8804 6.90791 60.8159 7.25873C61.7514 7.60954 62.5232 8.17084 63.1312 8.94262L63.6224 7.22365H67.797ZM62.9558 15.9589C62.9558 15.0468 62.8272 14.2867 62.57 13.6786C62.3361 13.0471 62.0087 12.5443 61.5877 12.1701C61.1901 11.7725 60.7107 11.4919 60.1494 11.3281C59.6115 11.141 59.0268 11.0475 58.3953 11.0475C57.7639 11.0475 57.1675 11.1761 56.6062 11.4334C56.0683 11.6907 55.5889 12.0415 55.1679 12.4858C54.747 12.9068 54.4195 13.4213 54.1857 14.0294C53.9518 14.6141 53.8349 15.2339 53.8349 15.8887C53.8349 16.5669 53.9518 17.1984 54.1857 17.7831C54.4195 18.3678 54.747 18.8823 55.1679 19.3267C55.5889 19.7476 56.0683 20.0868 56.6062 20.344C57.1675 20.6013 57.7639 20.7299 58.3953 20.7299C59.6583 20.7299 60.7224 20.344 61.5877 19.5722C62.4764 18.7771 62.9324 17.5726 62.9558 15.9589Z" fill="#150A22"/>
<path d="M84.7168 7.22365H89.9438L82.9277 24.6239H76.6833L69.6672 7.22365H74.8591L79.8055 20.0984L84.7168 7.22365Z" fill="#150A22"/>
<path d="M96.9161 24.6239H92.075V7.22365H96.9161V24.6239Z" fill="#150A22"/>
<path d="M110.026 6.73251C111.266 6.73251 112.412 6.97808 113.464 7.46921C114.517 7.93696 115.417 8.59181 116.166 9.43376C116.937 10.2523 117.534 11.2229 117.955 12.3455C118.399 13.4447 118.621 14.6258 118.621 15.8887C118.621 17.1516 118.399 18.3444 117.955 19.467C117.534 20.5662 116.937 21.5368 116.166 22.3787C115.417 23.1973 114.517 23.8521 113.464 24.3433C112.412 24.811 111.266 25.0449 110.026 25.0449C109.021 25.0449 108.039 24.8695 107.08 24.5187C106.121 24.1445 105.372 23.6767 104.834 23.1154V31.57H99.9933V7.22365H104.133L104.834 8.41641C105.513 7.80833 106.273 7.37566 107.115 7.1184C107.957 6.86114 108.927 6.73251 110.026 6.73251ZM109.395 20.7299C110.026 20.7299 110.611 20.6013 111.149 20.344C111.71 20.0868 112.19 19.7476 112.587 19.3267C113.008 18.8823 113.336 18.3678 113.57 17.7831C113.827 17.1984 113.955 16.5669 113.955 15.8887C113.955 15.2339 113.827 14.6141 113.57 14.0294C113.336 13.4213 113.008 12.9068 112.587 12.4858C112.19 12.0415 111.71 11.6907 111.149 11.4334C110.611 11.1761 110.026 11.0475 109.395 11.0475C108.764 11.0475 108.167 11.141 107.606 11.3281C107.068 11.4919 106.589 11.7725 106.168 12.1701C105.77 12.5443 105.454 13.0471 105.22 13.6786C104.986 14.2867 104.87 15.0234 104.87 15.8887C104.87 16.7073 104.986 17.4206 105.22 18.0287C105.454 18.6133 105.77 19.1162 106.168 19.5371C106.589 19.9347 107.068 20.2388 107.606 20.4493C108.167 20.6364 108.764 20.7299 109.395 20.7299Z" fill="#150A22"/>
<path d="M138.892 7.22365V24.6239H134.717L134.226 22.7646C133.548 23.6767 132.729 24.2848 131.77 24.5888C130.835 24.8929 129.852 25.0449 128.823 25.0449C127.584 25.0449 126.438 24.811 125.385 24.3433C124.356 23.8521 123.456 23.1973 122.684 22.3787C121.912 21.5368 121.304 20.5662 120.86 19.467C120.439 18.3444 120.229 17.1516 120.229 15.8887C120.229 14.6258 120.439 13.4447 120.86 12.3455C121.304 11.2229 121.912 10.2523 122.684 9.43376C123.456 8.59181 124.356 7.93696 125.385 7.46921C126.438 6.97808 127.584 6.73251 128.823 6.73251C129.946 6.73251 130.975 6.90791 131.91 7.25873C132.846 7.60954 133.618 8.17084 134.226 8.94262L134.717 7.22365H138.892ZM134.05 15.9589C134.05 15.0468 133.922 14.2867 133.665 13.6786C133.431 13.0471 133.103 12.5443 132.682 12.1701C132.285 11.7725 131.805 11.4919 131.244 11.3281C130.706 11.141 130.121 11.0475 129.49 11.0475C128.858 11.0475 128.262 11.1761 127.701 11.4334C127.163 11.6907 126.683 12.0415 126.262 12.4858C125.841 12.9068 125.514 13.4213 125.28 14.0294C125.046 14.6141 124.929 15.2339 124.929 15.8887C124.929 16.5669 125.046 17.1984 125.28 17.7831C125.514 18.3678 125.841 18.8823 126.262 19.3267C126.683 19.7476 127.163 20.0868 127.701 20.344C128.262 20.6013 128.858 20.7299 129.49 20.7299C130.753 20.7299 131.817 20.344 132.682 19.5722C133.571 18.7771 134.027 17.5726 134.05 15.9589Z" fill="#150A22"/>
<path d="M146.799 9.64425C147.033 9.27005 147.301 8.91924 147.605 8.59181C147.91 8.241 148.272 7.93696 148.693 7.6797C149.114 7.39905 149.593 7.17687 150.131 7.01316C150.669 6.84945 151.277 6.76759 151.955 6.76759C152.751 6.76759 153.674 6.90792 154.727 7.18857L154.271 11.5036C154.014 11.4568 153.756 11.3983 153.499 11.3281C153.289 11.2814 153.055 11.2463 152.797 11.2229C152.54 11.1761 152.306 11.1527 152.096 11.1527C151.347 11.1527 150.646 11.258 149.991 11.4685C149.36 11.679 148.81 11.9713 148.342 12.3455C147.874 12.7197 147.5 13.1758 147.22 13.7137C146.939 14.2282 146.799 14.7895 146.799 15.3976V24.6239H141.958V7.22365H146.343L146.799 9.64425Z" fill="#150A22"/>
<path d="M0 16.7609H7.86291V24.6239H0V16.7609Z" fill="#C80C0F"/>
<path d="M9.67743 16.7609L17.5403 24.6239H9.67743V16.7609Z" fill="#150A22"/>
<path d="M0 7.08332L7.86291 14.9463H0V7.08332Z" fill="#150A22"/>
<path d="M0 4.66393L19.9597 24.6239H24.1936V20.39L4.23391 0.429993H3.37439e-05L0 4.66393Z" fill="#150A22"/>
<path d="M18.1452 0.429993H24.1936V24.6239L18.1452 17.6682V0.429993Z" fill="#150A22"/>
<path d="M91.9961 0.429993H96.8348V5.26878H91.9961V0.429993Z" fill="#150A22"/>
</g>
</svg>
